<?xml version="1.0" encoding="utf-8"?>
<!-- Generator: Adobe Illustrator 16.0.0, SVG Export Plug-In . SVG Version: 6.00 Build 0)  -->
<!DOCTYPE svg PUBLIC "-//W3C//DTD SVG 1.1//EN" "http://www.w3.org/Graphics/SVG/1.1/DTD/svg11.dtd">
<svg version="1.1" id="svg2" xmlns:svg="http://www.w3.org/2000/svg"
	 xmlns="http://www.w3.org/2000/svg" xmlns:xlink="http://www.w3.org/1999/xlink" x="0px" y="0px" width="61.282px"
	 height="57.583px" viewBox="35.23 31.113 61.282 57.583" enable-background="new 35.23 31.113 61.282 57.583" xml:space="preserve"
	>
<g>
	<path id="path9" fill="#FBCE07" d="M62.397,86.134H47.143l-1.356-11.271l-9.322-6.695c-0.424-1.949-0.593-3.982-0.593-6.017
		c0-16.61,13.475-30,30-30c16.611,0,30,13.475,30,30c0,2.034-0.169,4.067-0.593,6.017l-9.237,6.695l-1.44,11.271H69.346
		l-0.847,0.678c-0.763,0.593-1.694,0.848-2.627,0.848c-0.932,0-1.864-0.34-2.627-0.848L62.397,86.134L62.397,86.134z"/>
	<path fill="#DD1D21" d="M65.872,32.15c-16.525,0-30,13.39-30,30c0,2.034,0.169,4.067,0.593,6.017l9.322,6.695l1.356,11.271h15.254
		l0.848,0.678c0.763,0.508,1.695,0.848,2.627,0.848c0.933,0,1.864-0.255,2.627-0.848l0.847-0.678h15.255l1.44-11.271l9.237-6.695
		c0.424-1.949,0.593-3.982,0.593-6.017C95.871,45.625,82.482,32.15,65.872,32.15z M90.236,65.285l-9.152,6.61l-1.102,8.983H68.965
		l-1.694,1.187c-0.424,0.339-0.933,0.424-1.441,0.424l-1.441-0.424l-1.525-1.187H51.762l-1.102-8.983l-9.153-6.61
		c-0.254-1.017-0.424-2.118-0.424-3.22c0-1.779,0.339-3.56,1.102-5.17l16.187,16.356L42.694,53.845
		c0.593-2.542,1.949-4.745,3.898-6.525L60.66,71.642L48.202,45.116c1.61-2.119,3.898-3.729,6.441-4.491l8.644,30.169l-6.271-31.44
		c1.949-1.102,4.068-1.61,6.271-1.61c0.424,0,0.932,0,1.356,0.085l1.271,32.627l1.271-32.627c0.424-0.085,0.933-0.085,1.356-0.085
		c2.203,0,4.322,0.594,6.271,1.61l-6.271,31.44l8.645-30.254c2.543,0.763,4.83,2.372,6.441,4.491l-12.543,26.61l14.068-24.322
		c1.949,1.695,3.305,3.983,3.897,6.525L73.372,73.252l16.187-16.356c0.762,1.61,1.102,3.391,1.102,5.17
		C90.66,63.167,90.49,64.185,90.236,65.285z"/>
</g>
</svg>
