<?xml version="1.0" encoding="utf-8"?>
<!-- Generator: Adobe Illustrator 16.0.0, SVG Export Plug-In . SVG Version: 6.00 Build 0)  -->
<!DOCTYPE svg PUBLIC "-//W3C//DTD SVG 1.1//EN" "http://www.w3.org/Graphics/SVG/1.1/DTD/svg11.dtd">
<svg version="1.1" id="Layer_1" xmlns="http://www.w3.org/2000/svg" xmlns:xlink="http://www.w3.org/1999/xlink" x="0px" y="0px"
	 width="192px" height="192px" viewBox="0 0 192 192" enable-background="new 0 0 192 192" xml:space="preserve">
<g>
	<path fill="#041e42" d="M136.822,39.349c-7.164,0-12.992,5.829-12.992,12.993c0,3.881,3.503,9.356,6.653,13.505v24.356h-27.59
		V66.258c3.229-4.189,6.971-9.906,6.971-13.916c0-7.164-5.829-12.993-12.993-12.993c-7.165,0-12.993,5.829-12.993,12.993
		c0,3.882,3.507,9.363,6.66,13.512v24.35h-27.59V66.25c3.227-4.189,6.963-9.901,6.963-13.908c0-7.164-5.829-12.993-12.993-12.993
		s-12.993,5.829-12.993,12.993c0,3.885,3.512,9.37,6.667,13.521v61.035c-3.154,4.15-6.667,9.636-6.667,13.521
		c0,7.164,5.828,12.993,12.993,12.993s12.993-5.829,12.993-12.993c0-4.007-3.736-9.719-6.963-13.908v-23.954h27.59v24.214
		c-3.18,4.165-6.765,9.723-6.765,13.648c0,7.164,5.829,12.993,12.993,12.993c7.164,0,12.993-5.829,12.993-12.993
		c0-3.969-3.662-9.603-6.866-13.781v-24.081h37.858c1.152,0,2.088-0.934,2.088-2.086V66.267c3.229-4.192,6.977-9.912,6.977-13.925
		C149.816,45.178,143.988,39.349,136.822,39.349z"/>
	<path fill="#041e42" d="M96,0C43.065,0,0,43.065,0,96c0,52.936,43.065,96,96,96s96-43.064,96-96C192,43.065,148.935,0,96,0z
		 M96,180.869c-46.798,0-84.87-38.072-84.87-84.869S49.202,11.131,96,11.131c46.797,0,84.869,38.072,84.869,84.869
		S142.797,180.869,96,180.869z"/>
</g>
</svg>
