<?xml version="1.0" encoding="utf-8"?>
<!-- Generator: Adobe Illustrator 16.0.0, SVG Export Plug-In . SVG Version: 6.00 Build 0)  -->
<!DOCTYPE svg PUBLIC "-//W3C//DTD SVG 1.1//EN" "http://www.w3.org/Graphics/SVG/1.1/DTD/svg11.dtd">
<svg version="1.1" id="Capa_1" xmlns="http://www.w3.org/2000/svg" xmlns:xlink="http://www.w3.org/1999/xlink" x="0px" y="0px"
	 width="595.279px" height="239.561px" viewBox="0 304.884 595.279 239.561" enable-background="new 0 304.884 595.279 239.561"
	 xml:space="preserve">
<g>
	<g>
		<path fill="#060E9F" d="M218.855,414.128c0-38.887-48.316-70.587-107.919-70.587c-59.6,0-107.915,31.7-107.915,70.587
			c0,1.003-0.012,3.78-0.012,4.132c0,41.253,42.23,74.665,107.913,74.665c66.09,0,107.933-33.402,107.933-74.657
			C218.855,416.826,218.855,415.997,218.855,414.128z"/>
		<path fill="#00ADEE" d="M214.722,414.094c0,36.66-46.457,66.381-103.767,66.381c-57.309,0-103.764-29.721-103.764-66.381
			c0-36.665,46.455-66.385,103.764-66.385C168.265,347.709,214.722,377.429,214.722,414.094z"/>
		<g>
			<path fill="#FFFFFF" d="M76.502,393.15c-0.055,0.105-1.09,1.175-0.419,2.036c1.638,2.092,6.695,3.292,11.81,2.145
				c3.046-0.685,6.949-3.789,10.731-6.789c4.098-3.257,8.163-6.516,12.25-7.813c4.327-1.377,7.099-0.787,8.932-0.232
				c2.01,0.6,4.373,1.922,8.142,4.75c7.101,5.338,35.65,30.257,40.583,34.566c3.973-1.794,21.63-9.396,45.623-14.684
				c-2.084-12.792-9.865-24.494-21.666-34.077c-16.446,6.908-36.547,10.512-56.202,0.913c-0.1-0.041-10.738-5.075-21.23-4.828
				c-15.595,0.361-22.351,7.111-29.5,14.256L76.502,393.15z"/>
			<path fill="#FFFFFF" d="M167.37,424.522c-0.334-0.297-33.569-29.377-41.099-35.037c-4.357-3.268-6.78-4.101-9.325-4.426
				c-1.325-0.171-3.155,0.074-4.435,0.425c-3.502,0.953-8.081,4.016-12.148,7.239c-4.21,3.354-8.18,6.511-11.862,7.336
				c-4.706,1.055-10.453-0.19-13.075-1.963c-1.063-0.713-1.81-1.54-2.169-2.379c-0.968-2.246,0.818-4.042,1.111-4.342l9.171-9.92
				c1.066-1.064,2.141-2.128,3.238-3.178c-2.959,0.386-5.695,1.142-8.357,1.883c-3.323,0.935-6.519,1.823-9.753,1.822
				c-1.35,0-8.583-1.186-9.955-1.56c-8.3-2.271-15.584-4.483-26.465-9.563c-13.038,9.706-21.757,21.842-24.276,35.21
				c1.874,0.495,4.892,1.394,6.159,1.675c29.506,6.56,38.696,13.319,40.363,14.728c1.805-2.007,4.407-3.278,7.314-3.278
				c3.266,0.004,6.207,1.644,7.995,4.18c1.689-1.335,4.02-2.476,7.032-2.474c1.368,0,2.787,0.254,4.22,0.741
				c3.33,1.142,5.047,3.357,5.938,5.365c1.117-0.505,2.49-0.878,4.106-0.872c1.588,0,3.242,0.361,4.907,1.081
				c5.44,2.335,6.287,7.679,5.793,11.708c0.387-0.045,0.777-0.063,1.174-0.063c6.449,0.003,11.696,5.247,11.693,11.699
				c0,1.998-0.51,3.874-1.398,5.523c1.755,0.986,6.229,3.219,10.157,2.721c3.138-0.395,4.33-1.467,4.756-2.071
				c0.292-0.416,0.601-0.898,0.314-1.248l-8.326-9.248c0,0-1.371-1.297-0.918-1.795c0.471-0.514,1.316,0.222,1.916,0.723
				c4.237,3.54,9.411,8.878,9.411,8.878c0.087,0.058,0.43,0.735,2.343,1.078c1.647,0.295,4.561,0.125,6.58-1.533
				c0.51-0.419,1.019-0.941,1.444-1.481c-0.033,0.027-0.061,0.063-0.092,0.075c2.128-2.724-0.235-5.48-0.235-5.48l-9.72-10.915
				c0,0-1.391-1.285-0.918-1.801c0.424-0.449,1.318,0.228,1.927,0.734c3.077,2.572,7.425,6.936,11.593,11.02
				c0.814,0.595,4.477,2.86,9.326-0.325c2.942-1.932,3.535-4.303,3.451-6.091c-0.205-2.368-2.053-4.057-2.053-4.057l-13.278-13.348
				c0,0-1.401-1.198-0.906-1.803c0.405-0.51,1.316,0.225,1.913,0.724c4.231,3.538,15.68,14.035,15.68,14.035
				c0.163,0.115,4.119,2.933,9.007-0.18c1.748-1.117,2.865-2.803,2.96-4.758C169.767,426.539,167.37,424.522,167.37,424.522z"/>
			<path fill="#FFFFFF" d="M102.973,441.444c-2.059-0.024-4.311,1.199-4.605,1.021c-0.162-0.106,0.126-0.936,0.319-1.412
				c0.197-0.474,2.909-8.629-3.7-11.462c-5.057-2.175-8.148,0.27-9.211,1.375c-0.279,0.288-0.404,0.265-0.436-0.104
				c-0.102-1.47-0.759-5.444-5.124-6.773c-6.238-1.91-10.25,2.444-11.267,4.014c-0.455-3.556-3.461-6.314-7.143-6.317
				c-4-0.005-7.245,3.235-7.249,7.234c-0.002,3.999,3.241,7.242,7.24,7.242c1.945,0.006,3.707-0.771,5.007-2.02
				c0.041,0.036,0.058,0.106,0.037,0.243c-0.304,1.791-0.866,8.298,5.95,10.949c2.732,1.06,5.057,0.27,6.983-1.081
				c0.574-0.404,0.668-0.234,0.586,0.307c-0.246,1.673,0.065,5.256,5.089,7.293c3.823,1.555,6.085-0.036,7.566-1.405
				c0.646-0.589,0.821-0.492,0.855,0.416c0.182,4.843,4.205,8.689,9.091,8.692c5.034,0.007,9.114-4.065,9.115-9.097
				C112.082,445.525,108.006,441.499,102.973,441.444z"/>
		</g>
		<path fill="#060E9F" d="M168.656,421.042c-10.237-8.935-33.898-29.505-40.306-34.314c-3.661-2.754-6.158-4.208-8.35-4.861
			c-0.984-0.297-2.347-0.636-4.102-0.637c-1.629,0-3.379,0.294-5.208,0.876c-4.142,1.31-8.267,4.589-12.258,7.761l-0.205,0.163
			c-3.718,2.954-7.559,6.012-10.466,6.662c-1.269,0.286-2.575,0.433-3.876,0.433c-3.256-0.004-6.182-0.944-7.278-2.342
			c-0.181-0.231-0.065-0.606,0.358-1.145l0.056-0.071l9.006-9.706c7.054-7.054,13.717-13.714,29.054-14.066
			c0.252-0.008,0.512-0.012,0.765-0.012c9.546,0.006,19.09,4.28,20.16,4.774c8.951,4.367,18.189,6.584,27.478,6.592
			c9.68,0.003,19.667-2.393,30.167-7.229c-1.172-0.986-2.393-1.946-3.648-2.887c-9.224,3.999-18.013,6.02-26.492,6.017
			c-8.66-0.008-17.313-2.088-25.713-6.187c-0.443-0.211-10.981-5.18-21.946-5.185c-0.287,0-0.578,0.005-0.865,0.009
			c-12.882,0.302-20.139,4.876-25.018,8.884c-4.746,0.116-8.84,1.26-12.484,2.277c-3.25,0.903-6.058,1.687-8.796,1.686
			c-1.128,0-3.158-0.104-3.34-0.109c-3.149-0.096-19.012-3.987-31.631-8.765c-1.289,0.913-2.528,1.854-3.735,2.813
			c13.183,5.405,29.225,9.586,34.288,9.913c1.409,0.092,2.911,0.252,4.412,0.255c3.349,0,6.692-0.94,9.927-1.845
			c1.91-0.537,4.019-1.12,6.237-1.545c-0.592,0.582-1.183,1.17-1.775,1.764l-9.151,9.898c-0.72,0.728-2.284,2.667-1.252,5.057
			c0.41,0.964,1.242,1.886,2.406,2.67c2.18,1.468,6.085,2.461,9.712,2.464c1.374,0.001,2.676-0.137,3.875-0.405
			c3.834-0.861,7.858-4.066,12.121-7.455c3.396-2.698,8.221-6.125,11.915-7.131c1.032-0.281,2.3-0.456,3.319-0.456
			c0.305,0.003,0.592,0.012,0.859,0.05c2.441,0.31,4.8,1.14,9.013,4.303c7.511,5.641,40.75,34.719,41.075,35.007
			c0.023,0.019,2.142,1.846,1.995,4.886c-0.079,1.694-1.02,3.2-2.655,4.241c-1.418,0.902-2.883,1.36-4.363,1.36
			c-2.221-0.006-3.751-1.044-3.85-1.117c-0.123-0.1-11.511-10.542-15.7-14.048c-0.668-0.553-1.316-1.051-1.972-1.051
			c-0.351-0.003-0.66,0.147-0.87,0.41c-0.66,0.812,0.079,1.937,0.949,2.677l13.302,13.372c0.018,0.013,1.658,1.552,1.837,3.602
			c0.105,2.217-0.955,4.071-3.158,5.514c-1.57,1.035-3.159,1.561-4.715,1.561c-2.042,0-3.477-0.932-3.794-1.15l-1.909-1.883
			c-3.487-3.431-7.088-6.978-9.724-9.179c-0.643-0.534-1.33-1.026-1.983-1.026c-0.323,0-0.615,0.118-0.838,0.355
			c-0.3,0.334-0.51,0.935,0.239,1.931c0.31,0.41,0.672,0.747,0.672,0.747l9.708,10.903c0.08,0.098,2.001,2.381,0.218,4.652
			l-0.343,0.438c-0.29,0.318-0.604,0.613-0.902,0.868c-1.656,1.36-3.869,1.506-4.745,1.506c-0.467,0-0.92-0.043-1.312-0.112
			c-0.958-0.173-1.602-0.44-1.913-0.808l-0.117-0.121c-0.531-0.55-5.424-5.545-9.474-8.925c-0.533-0.446-1.198-1.011-1.887-1.011
			c-0.34,0-0.642,0.134-0.876,0.392c-0.801,0.878,0.401,2.189,0.911,2.672l8.28,9.131c-0.009,0.079-0.114,0.267-0.314,0.556
			c-0.296,0.41-1.301,1.415-4.304,1.791c-0.36,0.049-0.731,0.067-1.099,0.067c-3.097,0-6.4-1.503-8.103-2.405
			c0.774-1.637,1.177-3.44,1.177-5.247c0.003-6.816-5.531-12.357-12.344-12.364c-0.146,0-0.301,0.007-0.447,0.01
			c0.224-3.109-0.217-9.003-6.264-11.596c-1.74-0.754-3.477-1.136-5.164-1.136c-1.321,0-2.59,0.225-3.785,0.683
			c-1.252-2.435-3.333-4.207-6.047-5.132c-1.499-0.52-2.991-0.782-4.433-0.782c-2.516,0-4.834,0.741-6.902,2.213
			c-1.981-2.465-4.974-3.924-8.125-3.924c-2.757,0-5.409,1.104-7.375,3.05c-2.576-1.967-12.8-8.462-40.161-14.674
			c-1.325-0.299-4.366-1.172-6.229-1.717c-0.308,1.482-0.545,2.979-0.7,4.489c0,0,5.046,1.208,6.039,1.432
			c27.952,6.208,37.187,12.663,38.748,13.883c-0.528,1.27-0.803,2.642-0.806,4.021c-0.003,5.775,4.692,10.479,10.472,10.481
			c0.647,0,1.289-0.055,1.92-0.173c0.87,4.251,3.651,7.473,7.901,9.124c1.242,0.477,2.499,0.723,3.732,0.723
			c0.798,0.003,1.6-0.097,2.385-0.297c0.784,1.991,2.551,4.479,6.498,6.081c1.384,0.556,2.769,0.848,4.114,0.848
			c1.099,0,2.174-0.191,3.199-0.568c1.892,4.606,6.395,7.661,11.414,7.661c3.327,0.003,6.521-1.351,8.85-3.75
			c1.995,1.108,6.204,3.115,10.456,3.122c0.551,0,1.067-0.04,1.583-0.101c4.224-0.534,6.189-2.187,7.093-3.471
			c0.163-0.225,0.31-0.462,0.434-0.711c0.998,0.289,2.094,0.522,3.349,0.525c2.308,0,4.521-0.786,6.759-2.417
			c2.198-1.585,3.76-3.862,3.985-5.799c0.004-0.024,0.009-0.055,0.012-0.082c0.741,0.151,1.501,0.23,2.261,0.23
			c2.375,0,4.711-0.741,6.943-2.201c4.306-2.824,5.054-6.51,4.982-8.924c0.753,0.157,1.523,0.236,2.288,0.236
			c2.23,0,4.418-0.671,6.505-2.001c2.669-1.703,4.275-4.317,4.518-7.356c0.167-2.065-0.345-4.151-1.435-5.942
			c7.214-3.107,23.702-9.122,43.117-13.498c-0.117-1.506-0.334-2.993-0.603-4.473C190.575,411.502,173.046,419.088,168.656,421.042z
			 M102.973,459.01c-4.563-0.006-8.271-3.55-8.438-8.067c-0.012-0.389-0.051-1.418-0.923-1.418c-0.358,0-0.669,0.216-1.028,0.54
			c-1.002,0.93-2.28,1.874-4.146,1.874c-0.846,0-1.764-0.197-2.733-0.593c-4.817-1.952-4.884-5.262-4.688-6.592
			c0.053-0.355,0.071-0.723-0.173-1.011l-0.296-0.265h-0.301c-0.244,0-0.496,0.101-0.838,0.341
			c-1.394,0.978-2.729,1.454-4.088,1.454c-0.749,0-1.515-0.152-2.284-0.446c-6.343-2.469-5.842-8.456-5.532-10.257
			c0.046-0.364-0.044-0.65-0.276-0.838l-0.448-0.368l-0.419,0.401c-1.237,1.19-2.853,1.843-4.553,1.843
			c-3.633-0.003-6.589-2.954-6.586-6.589c0.003-3.635,2.962-6.583,6.595-6.58c3.282,0,6.077,2.469,6.497,5.748l0.226,1.771
			l0.972-1.497c0.109-0.176,2.771-4.199,7.664-4.196c0.931,0,1.892,0.151,2.859,0.449c3.902,1.19,4.562,4.728,4.664,6.2
			c0.07,0.859,0.68,0.902,0.8,0.902c0.337,0,0.584-0.216,0.761-0.398c0.736-0.768,2.339-2.046,4.849-2.046
			c1.147,0.003,2.37,0.276,3.631,0.816c6.199,2.66,3.387,10.539,3.354,10.621c-0.533,1.306-0.554,1.883-0.053,2.214l0.244,0.118
			h0.181c0.279,0,0.627-0.121,1.201-0.315c0.844-0.292,2.118-0.732,3.308-0.729h0.003c4.667,0.051,8.462,3.85,8.461,8.462
			C111.434,455.221,107.636,459.01,102.973,459.01z"/>
	</g>
	<g>
		<path fill="#060E9F" d="M586.581,369.153c-3.894-4.881-9.808-7.32-17.743-7.32c-7.926,0-13.841,2.438-17.733,7.32
			c-3.899,4.878-5.849,10.645-5.849,17.297c0,6.771,1.949,12.559,5.849,17.376c3.893,4.8,9.808,7.21,17.733,7.21
			c7.936,0,13.85-2.41,17.743-7.21c3.899-4.817,5.844-10.604,5.844-17.376C592.425,379.798,590.481,374.031,586.581,369.153z
			 M576.931,397.15c-1.893,2.51-4.595,3.764-8.131,3.764c-3.526,0-6.244-1.254-8.149-3.764c-1.906-2.506-2.855-6.076-2.855-10.7
			c0-4.618,0.949-8.178,2.855-10.673c1.905-2.494,4.623-3.742,8.149-3.742c3.536,0,6.238,1.248,8.131,3.742
			c1.887,2.495,2.836,6.055,2.836,10.673C579.767,391.075,578.818,394.644,576.931,397.15z"/>
		<path fill="#060E9F" d="M487.031,365.072c-3.948-2.002-8.472-3.014-13.559-3.014c-7.82,0-13.341,2.042-16.553,6.115
			c-2.021,2.61-3.155,5.935-3.419,9.983h11.686c0.287-1.787,0.86-3.202,1.723-4.248c1.206-1.415,3.254-2.123,6.15-2.123
			c2.589,0,4.546,0.355,5.885,1.085c1.33,0.72,2.001,2.031,2.001,3.924c0,1.561-0.867,2.703-2.611,3.443
			c-0.972,0.425-2.583,0.779-4.842,1.062l-4.142,0.51c-4.705,0.592-8.277,1.588-10.695,2.978c-4.426,2.549-6.635,6.665-6.635,12.358
			c0,4.384,1.368,7.779,4.123,10.172c2.741,2.393,6.234,3.396,10.447,3.592c26.424,1.18,26.125-13.925,26.368-17.066v-17.386
			C492.958,370.883,490.98,367.084,487.031,365.072z M480.894,391.453c-0.08,4.049-1.241,6.838-3.469,8.367
			c-2.229,1.53-4.664,2.297-7.304,2.297c-1.673,0-3.088-0.465-4.254-1.383c-1.163-0.92-1.741-2.416-1.741-4.483
			c0-2.319,0.948-4.031,2.854-5.137c1.135-0.648,2.983-1.207,5.567-1.65l2.76-0.512c1.373-0.261,2.454-0.539,3.243-0.838
			c0.799-0.29,1.57-0.674,2.344-1.162V391.453z"/>
		<path fill="#060E9F" d="M426.78,372.415c3.021,0,5.238,0.932,6.673,2.796c0.982,1.38,1.597,2.937,1.836,4.661h13.033
			c-0.715-6.575-3.017-11.167-6.9-13.767c-3.897-2.589-8.889-3.895-14.992-3.895c-7.18,0-12.817,2.206-16.89,6.606
			c-4.082,4.407-6.124,10.567-6.124,18.484c0,7.011,1.846,12.726,5.539,17.13c3.694,4.401,9.457,6.606,17.287,6.606
			c7.84,0,13.758-2.641,17.744-7.921c2.502-3.271,3.903-6.745,4.197-10.417h-12.989c-0.264,2.427-1.021,4.407-2.28,5.932
			c-1.252,1.518-3.364,2.285-6.352,2.285c-4.207,0-7.07-1.917-8.594-5.763c-0.832-2.051-1.254-4.767-1.254-8.146
			c0-3.545,0.422-6.387,1.254-8.535C419.55,374.437,422.491,372.415,426.78,372.415z"/>
		<path fill="#060E9F" d="M399.921,362.21c-26.772,0-25.189,23.706-25.189,23.706v24.08h12.15V387.41c0-3.7,0.469-6.44,1.394-8.222
			c1.668-3.158,4.924-4.743,9.783-4.743c0.366,0,0.847,0.02,1.44,0.047c0.591,0.029,1.264,0.082,2.036,0.171v-12.362
			c-0.539-0.037-0.89-0.052-1.04-0.067C400.339,362.221,400.148,362.21,399.921,362.21z"/>
		<path fill="#060E9F" d="M355.291,397.415c-0.51,0.728-1.058,1.351-1.664,1.837c-1.716,1.413-4.046,1.843-6.791,1.843
			c-2.598,0-4.627-0.393-6.467-1.553c-3.032-1.863-4.737-5.016-4.919-9.645h33.617c0.047-3.983-0.082-7.035-0.404-9.159
			c-0.559-3.615-1.787-6.801-3.674-9.543c-2.097-3.109-4.764-5.385-7.979-6.831c-3.217-1.435-6.831-2.156-10.847-2.156
			c-6.77,0-12.266,2.133-16.506,6.396c-4.237,4.272-6.366,10.396-6.366,18.391c0,8.536,2.351,14.695,7.049,18.479
			c4.693,3.785,10.119,5.681,16.257,5.681c7.439,0,13.229-2.244,17.362-6.735c2.23-2.362,3.627-4.7,4.216-7.005H355.291z
			 M338.958,374.792c1.711-1.755,4.11-2.635,7.206-2.635c2.85,0,5.233,0.826,7.161,2.488c1.917,1.656,2.992,4.091,3.209,7.289
			h-20.788C336.18,378.929,337.257,376.552,338.958,374.792z"/>
		<g>
			<path fill="#060E9F" d="M318.414,409.991h-11.098v-27.945c0-2.554-0.843-8.626-8.163-8.626c-4.881,0-8.413,3.521-8.413,8.626
				v27.945h-11.108v-27.945c0-2.554-0.758-8.626-8.074-8.626c-4.966,0-8.417,3.521-8.417,8.626v27.945h-11.104v-27.68
				c0-11.538,7.653-20.262,19.521-20.262c5.891,0,10.682,2.473,13.799,6.436c3.277-3.963,8.155-6.436,13.796-6.436
				c12.115,0,19.261,8.371,19.261,20.262V409.991z"/>
		</g>
		<path fill="#060E9F" d="M541.643,347.617c0,0-12.238-1.307-12.238,8.524l-0.009,13.015c-1.354-2.174-3.117-3.876-5.291-5.101
			c-2.168-1.227-4.651-1.845-7.454-1.845c-6.069,0-10.906,2.261-14.538,6.775c-3.632,4.52-5.438,11.031-5.438,18.905
			c0,6.832,1.841,12.434,5.525,16.796c3.683,4.355,10.906,6.269,17.32,6.269c22.372,0,22.114-19.186,22.114-19.186L541.643,347.617z
			 M527.07,397.251c-1.772,2.543-4.38,3.812-7.788,3.812c-3.422,0-5.966-1.281-7.643-3.833c-1.678-2.558-2.516-6.281-2.516-10.541
			c0-3.953,0.82-7.263,2.474-9.93c1.646-2.665,4.234-4.003,7.766-4.003c2.316,0,4.346,0.734,6.102,2.201
			c2.85,2.429,4.275,6.786,4.275,12.428C529.74,391.421,528.848,394.709,527.07,397.251z"/>
	</g>
	<g>
		<g>
			<path fill="#00ADEE" d="M340.758,487.105c0,1.646-0.599,3.058-1.795,4.229c-1.186,1.176-2.616,1.765-4.284,1.765h-6.068v-42.221
				c0-8.211,2.768-13.352,7.32-16.828c3.011-2.295,7.496-4.487,15.896-4.487c5.673,0,12.317,2.201,15.905,6.576
				c4.026,4.919,5.705,10.403,5.705,17.563c0,7.409-1.785,13.385-5.354,17.979c-3.571,4.47-8.159,6.695-13.757,6.695
				c-2.976,0-5.593-0.531-7.854-1.582c-2.391-1.178-4.285-2.997-5.714-5.466V487.105z M361.118,454.23
				c0-4.582-0.892-8.101-2.685-10.572c-1.784-2.46-4.344-3.705-7.679-3.705c-3.211,0-5.713,1.245-7.508,3.705
				c-1.66,2.234-2.489,5.769-2.489,10.572c0,4.479,0.888,7.813,2.678,10.048c1.781,2.472,4.345,3.704,7.679,3.704
				c3.092,0,5.535-1.232,7.319-3.704C360.227,461.813,361.118,458.473,361.118,454.23"/>
			<path fill="#00ADEE" d="M453.941,474.483v-2.985c-2.104,3.295-4.945,5.336-8.51,6.164c-3.57,0.814-7.106,0.522-10.607-0.89
				c-3.514-1.402-6.528-4.017-9.044-7.827c-2.51-3.826-3.766-8.846-3.766-15.066c0-7.27,1.667-13.176,4.995-17.693
				c3.336-4.519,8.69-6.58,16.057-6.78c7.258-0.191,11.479,1.451,15.611,4.579c4.519,3.431,7.19,8.693,7.19,16.903v24.838
				c0.018,7.903-5.493,22.551-22.802,21.309c-10.725-0.777-16.678-5.177-19.998-15.146h12.805c0.936,1.64,2.365,2.903,4.304,3.774
				c1.919,0.893,3.861,1.12,5.777,0.711c1.928-0.41,3.685-1.561,5.274-3.432C452.797,481.063,453.702,478.242,453.941,474.483
				 M433.94,454.236c0,8.099,2.343,12.586,7.021,13.476c4.671,0.865,8.125-0.219,10.348-3.267c1.054-1.281,1.81-3.316,2.278-6.067
				c0.465-2.757,0.501-5.489,0.09-8.186c-0.402-2.709-1.374-5.113-2.896-7.227c-1.516-2.11-3.741-3.17-6.665-3.17
				c-3.978,0-6.66,1.473-8.066,4.396C434.635,447.132,433.94,450.478,433.94,454.236"/>
			<path fill="#00ADEE" d="M411.622,432.754c-3.953-1.997-8.475-3.009-13.558-3.009c-7.826,0-13.34,2.041-16.556,6.112
				c-2.017,2.605-3.156,5.934-3.418,9.983h11.692c0.285-1.788,0.856-3.203,1.72-4.247c1.205-1.415,3.255-2.123,6.147-2.123
				c2.595,0,4.548,0.355,5.883,1.084c1.33,0.723,2.003,2.031,2.003,3.93c0,1.558-0.869,2.702-2.611,3.439
				c-0.969,0.426-2.58,0.777-4.841,1.063l-4.142,0.505c-4.703,0.595-8.278,1.594-10.692,2.979c-4.43,2.548-6.638,6.665-6.638,12.354
				c0,4.388,1.368,7.782,4.124,10.172c2.74,2.393,6.231,3.401,10.446,3.596c26.417,1.181,26.12-13.928,26.362-17.067v-17.387
				C417.545,438.563,415.573,434.771,411.622,432.754 M405.482,459.135c-0.076,4.053-1.239,6.838-3.465,8.368
				c-2.226,1.527-4.661,2.292-7.303,2.292c-1.673,0-3.088-0.461-4.251-1.378c-1.167-0.92-1.75-2.417-1.75-4.485
				c0-2.316,0.954-4.032,2.86-5.138c1.135-0.649,2.981-1.205,5.565-1.648l2.759-0.513c1.378-0.262,2.459-0.535,3.238-0.835
				c0.803-0.292,1.574-0.678,2.346-1.163V459.135z"/>
			<path fill="#00ADEE" d="M511.825,436.586c-3.899-4.885-9.814-7.32-17.75-7.32c-7.919,0-13.836,2.436-17.731,7.32
				c-3.898,4.877-5.847,10.64-5.847,17.296c0,6.771,1.948,12.555,5.847,17.371c3.896,4.797,9.813,7.208,17.731,7.208
				c7.936,0,13.851-2.411,17.75-7.208c3.893-4.816,5.835-10.601,5.835-17.371C517.66,447.226,515.718,441.463,511.825,436.586
				 M502.168,464.575c-1.887,2.512-4.594,3.766-8.123,3.766c-3.53,0-6.251-1.254-8.15-3.766c-1.912-2.505-2.858-6.072-2.858-10.693
				c0-4.619,0.946-8.181,2.858-10.67c1.899-2.499,4.62-3.741,8.15-3.741c3.529,0,6.236,1.242,8.123,3.741
				c1.894,2.489,2.837,6.051,2.837,10.67C505.005,458.503,504.062,462.07,502.168,464.575"/>
		</g>
	</g>
</g>
</svg>
