<?xml version="1.0" encoding="utf-8"?>
<!-- Generator: Adobe Illustrator 16.0.0, SVG Export Plug-In . SVG Version: 6.00 Build 0)  -->
<!DOCTYPE svg PUBLIC "-//W3C//DTD SVG 1.1//EN" "http://www.w3.org/Graphics/SVG/1.1/DTD/svg11.dtd">
<svg version="1.1" id="Capa_1" xmlns="http://www.w3.org/2000/svg" xmlns:xlink="http://www.w3.org/1999/xlink" x="0px" y="0px"
	 width="595.279px" height="239.561px" viewBox="0 304.884 595.279 239.561" enable-background="new 0 304.884 595.279 239.561"
	 xml:space="preserve">
<g id="XMLID_85_">
	<polygon id="XMLID_170_" fill="#BE0811" points="358.479,422.193 475.787,304.884 592.784,422.193 	"/>
	<polygon id="XMLID_169_" fill="#DEA038" points="475.787,304.884 592.784,422.193 475.787,539.502 	"/>
	<polygon id="XMLID_168_" fill="#00448F" points="475.787,304.884 592.784,421.881 475.787,539.502 535.69,421.881 	"/>
	<path id="XMLID_138_" fill="#00448F" d="M6.552,503.623c2.496,1.56,6.239,2.496,10.296,2.496c6.239,0.312,10.607-3.744,10.607-9.36
		c0-4.991-2.808-7.8-7.488-12.479c-5.928-5.616-8.735-11.544-8.735-18.096c0-13.728,9.672-23.399,24.335-23.399
		c5.616,0,9.36,1.248,11.232,2.185l-3.744,11.855c-2.184-1.248-4.68-1.872-8.112-1.872c-5.928,0-9.671,3.744-9.983,9.359
		c0,3.433,1.561,6.24,7.488,11.544s9.048,11.855,9.048,17.783c0,15.288-10.296,24.336-24.336,24.336
		c-7.487,0-12.168-1.561-13.728-2.808L6.552,503.623z M74.254,443.721l-14.352,74.254H46.175l14.352-74.254H74.254z M74.878,503.623
		c2.496,1.56,6.239,2.496,10.296,2.496c6.239,0.312,10.607-3.744,10.607-9.36c0-4.991-2.808-7.8-7.488-12.479
		c-5.928-5.616-8.735-11.544-8.735-18.096c0-13.728,9.672-23.399,24.335-23.399c5.616,0,9.36,1.248,11.232,2.185l-3.744,11.855
		c-2.184-1.248-4.68-1.872-8.112-1.872c-5.928,0-9.671,3.744-9.983,9.359c0,3.433,1.561,6.24,7.488,11.544
		s9.048,11.855,9.048,17.783c0,15.288-10.296,24.336-24.336,24.336c-7.487,0-12.168-1.561-13.728-2.808L74.878,503.623z
		 M132.597,456.512h-12.792l2.496-13.104h39.623l-2.496,13.104h-12.792l-11.544,61.15h-13.728L132.597,456.512z M165.667,500.814
		l-6.552,17.16H145.7l29.951-74.254h16.224l0.624,74.254h-13.416l0.313-17.16H165.667z M179.707,490.52l0.312-16.536
		c0-4.367,0.624-12.479,0.624-18.096h-0.312c-1.872,5.616-4.056,13.729-5.616,17.784l-5.928,16.535h10.92V490.52z M214.027,444.656
		c4.68-0.624,9.672-1.248,14.663-1.248c6.24,0,12.479,1.248,16.536,4.992c3.119,3.12,4.991,7.487,4.991,12.168
		c0,10.919-6.552,19.655-14.976,22.463v0.313c4.057,1.871,5.928,6.239,5.928,14.352c0.313,8.111,0.313,17.472,1.248,20.279H228.69
		c-0.624-2.184-0.936-9.672-0.936-17.783c0-9.048-1.872-11.856-6.552-11.856h-2.185l-5.615,29.64h-13.416L214.027,444.656z
		 M221.202,477.416h3.12c6.863,0,11.543-7.488,11.543-15.288c0-4.056-1.56-8.111-6.863-8.111c-1.561,0-2.809,0-3.744,0.312
		L221.202,477.416z M264.569,444.656c3.744-0.624,9.048-1.248,14.352-1.248c5.929,0,12.48,0.937,16.848,5.304
		c3.12,3.12,4.681,7.176,4.681,11.856c0,9.048-6.24,16.535-14.352,18.719v0.313c7.487,2.496,9.671,9.359,9.671,15.911
		s-3.432,12.479-7.8,16.224c-5.304,4.368-12.791,6.552-23.087,6.552c-7.176,0-10.607-0.312-13.728-0.936L264.569,444.656z
		 M265.505,507.055c0.936,0.313,2.184,0.313,3.432,0.313c7.8,0,13.104-5.616,13.104-13.416c0-6.24-3.12-10.296-9.359-10.296h-2.496
		L265.505,507.055z M272.368,473.672h1.872c7.8,0,12.479-4.992,12.479-12.168c0-3.744-1.871-8.111-7.176-8.111
		c-1.248,0-2.808,0-3.743,0.312L272.368,473.672z M316.671,500.814l-6.552,17.16h-13.415l29.951-74.254h16.224l0.623,74.254h-13.415
		l0.312-17.16H316.671z M330.711,490.52l0.312-16.536c0-4.367,0.624-12.479,0.624-18.096h-0.312
		c-1.872,5.616-4.056,13.729-5.616,17.784l-5.928,16.535h10.92V490.52z M350.99,517.975l14.352-74.254h12.479l5.616,29.639
		c1.872,9.672,3.12,16.848,3.744,23.088h0.312c0.937-8.112,2.184-20.903,4.68-33.384l3.744-19.343h11.855l-14.352,74.254h-11.855
		l-5.928-27.768c-2.184-10.296-3.12-15.287-3.744-24.647h-0.312c-0.937,7.488-2.496,19.968-4.992,32.447l-3.744,19.655H350.99
		V517.975z M440.844,517.038c-2.184,0.937-5.615,1.561-9.983,1.561c-18.72,0-21.527-16.848-21.527-25.271
		c0-18.096,5.615-32.135,14.352-40.871c6.552-6.552,14.352-9.359,22.151-9.359c3.744,0,7.487,0.936,8.424,1.56l-3.744,12.168
		c-1.56-0.624-3.432-0.937-6.24-0.937c-3.743,0-8.111,2.185-11.231,6.24c-4.991,6.24-8.735,16.536-8.735,28.392
		c0,9.672,2.496,15.911,9.983,15.911c2.808,0,5.616-0.312,7.488-1.248L440.844,517.038z"/>
</g>
</svg>
