<?xml version="1.0" encoding="utf-8"?>
<!-- Generator: Adobe Illustrator 16.0.0, SVG Export Plug-In . SVG Version: 6.00 Build 0)  -->
<!DOCTYPE svg PUBLIC "-//W3C//DTD SVG 1.1//EN" "http://www.w3.org/Graphics/SVG/1.1/DTD/svg11.dtd">
<svg version="1.1" id="Layer_1" xmlns="http://www.w3.org/2000/svg" xmlns:xlink="http://www.w3.org/1999/xlink" x="0px" y="0px"
	 width="185.811px" height="22.459px" viewBox="0 0 185.811 22.459" enable-background="new 0 0 185.811 22.459"
	 xml:space="preserve">
<g>
	<path fill="#041E42" d="M46.698,5.359c-0.824-0.773-1.824-1.166-2.974-1.166H43.72L33.292,4.206
		c-1.165,0.002-2.169,0.393-2.986,1.162c-0.824,0.775-1.241,1.734-1.239,2.851l0.009,6.94c0.001,1.089,0.428,2.039,1.267,2.826
		c0.831,0.779,1.827,1.177,2.962,1.177h0.005l10.429-0.013c1.151-0.002,2.153-0.403,2.979-1.196c0.829-0.8,1.249-1.769,1.247-2.881
		l-0.008-6.876C47.954,7.095,47.531,6.141,46.698,5.359 M43.303,13.513c0,0.329-0.12,0.604-0.367,0.838
		c-0.252,0.242-0.539,0.36-0.877,0.36l-7.125,0.008h-0.001c-0.344,0-0.623-0.116-0.853-0.354c-0.234-0.242-0.35-0.519-0.35-0.841
		l-0.004-3.79c0-0.304,0.105-0.545,0.333-0.762c0.231-0.22,0.516-0.327,0.867-0.327l7.125-0.009h0.002
		c0.371,0,0.667,0.105,0.905,0.321c0.23,0.209,0.339,0.452,0.339,0.765L43.303,13.513z"/>
	<path fill="#041E42" d="M65.786,4.169L65.786,4.169L49.708,4.188c-0.113,0.001-0.223,0.046-0.303,0.126
		c-0.079,0.08-0.125,0.189-0.125,0.303l0.005,3.802c0,0.113,0.046,0.223,0.126,0.303c0.081,0.08,0.188,0.125,0.303,0.125l0,0
		l5.46-0.006l0.012,9.868c0,0.114,0.045,0.224,0.125,0.302c0.081,0.082,0.189,0.127,0.303,0.127l0,0l4.324-0.005
		c0.236-0.002,0.429-0.194,0.429-0.43l-0.013-9.869l5.438-0.006c0.236,0,0.428-0.193,0.428-0.429l-0.004-3.802
		C66.214,4.359,66.023,4.169,65.786,4.169"/>
	<path fill="#041E42" d="M85.245,5.314c-0.824-0.773-1.825-1.165-2.973-1.165h-0.005L71.839,4.162
		c-1.165,0.001-2.169,0.392-2.986,1.161c-0.824,0.776-1.241,1.735-1.239,2.852l0.009,6.94c0.001,1.087,0.427,2.036,1.267,2.827
		c0.831,0.779,1.828,1.174,2.962,1.174h0.005l10.429-0.01c1.152-0.002,2.154-0.406,2.979-1.199c0.829-0.795,1.249-1.766,1.247-2.881
		l-0.008-6.875C86.501,7.051,86.077,6.096,85.245,5.314 M81.85,13.468c0,0.33-0.12,0.604-0.367,0.84
		c-0.252,0.241-0.539,0.356-0.876,0.358l-7.127,0.009h-0.002c-0.344,0-0.623-0.115-0.851-0.354
		c-0.235-0.244-0.351-0.521-0.351-0.842l-0.003-3.79c0-0.304,0.105-0.545,0.333-0.763c0.23-0.22,0.514-0.326,0.867-0.326L80.6,8.593
		h0.002c0.37,0,0.667,0.104,0.905,0.32c0.23,0.21,0.339,0.453,0.339,0.766L81.85,13.468z"/>
	<path fill="#041E42" d="M104.123,13.051c0.307-0.27,0.568-0.54,0.785-0.809c0.396-0.486,0.595-1.07,0.594-1.731L105.5,8.127
		c-0.003-1.101-0.426-2.055-1.259-2.835c-0.823-0.772-1.823-1.163-2.973-1.163h-0.006L88.881,4.144
		c-0.236,0-0.428,0.191-0.427,0.429l0.016,14.142c0,0.114,0.045,0.222,0.125,0.302c0.081,0.08,0.19,0.127,0.303,0.127l0,0
		l3.804-0.006c0.111,0,0.221-0.045,0.302-0.125c0.08-0.08,0.124-0.188,0.124-0.304l-0.003-3.157l6.958-0.008h0.001
		c0.213,0,0.386,0.37,0.469,0.591c0.199,0.53,0.3,1.394,0.302,2.566c0,0.11,0.045,0.222,0.125,0.302
		c0.081,0.08,0.19,0.126,0.304,0.126h0.001l3.802-0.006c0.235,0,0.428-0.192,0.427-0.429c-0.001-1.903-0.106-3.264-0.32-4.151
		C105.022,13.842,104.658,13.34,104.123,13.051 M93.119,11.111l-0.003-2.532l6.459-0.008h0.001c0.355,0,0.651,0.111,0.905,0.341
		c0.245,0.223,0.36,0.473,0.361,0.782c0,0.396-0.126,0.725-0.386,1.007c-0.251,0.271-0.539,0.402-0.88,0.402L93.119,11.111z"/>
	<path fill="#041E42" d="M121.553,15.069c-0.079-0.079-0.188-0.123-0.303-0.123l0,0l-9.456,0.011l-0.014-10.412
		c-0.001-0.236-0.19-0.428-0.428-0.428l0,0l-3.803,0.004c-0.236,0.001-0.428,0.193-0.428,0.43l0.017,14.099
		c0,0.236,0.192,0.43,0.429,0.43l0,0l13.688-0.02c0.114,0,0.223-0.043,0.303-0.125c0.081-0.08,0.125-0.188,0.125-0.303l-0.004-3.259
		C121.679,15.259,121.635,15.149,121.553,15.069"/>
	<path fill="#041E42" d="M128.09,4.225c-0.08-0.08-0.189-0.126-0.303-0.126l0,0l-3.804,0.005c-0.235,0-0.427,0.192-0.427,0.429
		l0.018,14.098c0,0.116,0.045,0.224,0.125,0.304s0.188,0.127,0.304,0.127l0,0l3.802-0.006c0.236,0,0.429-0.191,0.428-0.429
		l-0.017-14.099C128.216,4.413,128.17,4.305,128.09,4.225"/>
	<path fill="#041E42" d="M147.748,5.757c-0.827-1.113-1.847-1.677-3.023-1.677h-0.005l-13.795,0.017
		c-0.237,0-0.428,0.192-0.428,0.429l0.017,14.099c0,0.235,0.191,0.428,0.428,0.428h0.001l13.795-0.016
		c1.198-0.002,2.221-0.576,3.039-1.71c0.788-1.094,1.187-2.413,1.186-3.932l-0.005-3.794C148.954,8.125,148.548,6.832,147.748,5.757
		 M143.884,14.204c-0.298,0.262-0.646,0.393-1.063,0.393l-7.652,0.01l-0.007-6.074l7.718-0.009h0.003
		c0.423,0,0.763,0.11,1.042,0.337c0.256,0.207,0.374,0.445,0.375,0.749l0.006,3.725C144.303,13.67,144.166,13.956,143.884,14.204"/>
	<path fill="#041E42" d="M165.712,14.896L165.712,14.896l-10.219,0.013l-0.001-1.599l9.608-0.014c0.112,0,0.222-0.044,0.302-0.126
		c0.081-0.08,0.125-0.188,0.125-0.302l-0.003-2.824c0-0.236-0.191-0.427-0.428-0.427h-0.001l-9.608,0.01l-0.002-1.445l10.219-0.012
		c0.111-0.001,0.222-0.046,0.302-0.126c0.08-0.081,0.125-0.188,0.125-0.303l-0.004-3.259c0-0.113-0.045-0.223-0.126-0.303
		c-0.08-0.08-0.188-0.125-0.304-0.125l0,0l-14.446,0.018c-0.113,0-0.224,0.045-0.304,0.125c-0.079,0.081-0.125,0.19-0.125,0.304
		l0.019,14.1c0,0.234,0.192,0.428,0.427,0.428h0.001l14.447-0.02c0.237,0,0.429-0.191,0.429-0.428l-0.005-3.259
		C166.139,15.087,165.949,14.896,165.712,14.896"/>
	<path fill="#041E42" d="M184.82,14.452c-0.169-0.698-0.531-1.203-1.067-1.489c0.306-0.271,0.569-0.54,0.786-0.81
		c0.395-0.487,0.594-1.072,0.594-1.732l-0.004-2.383c-0.001-1.101-0.425-2.056-1.258-2.836c-0.824-0.772-1.823-1.163-2.972-1.163
		h-0.006L168.51,4.053c-0.236,0.001-0.427,0.193-0.427,0.429l0.016,14.145c0.001,0.11,0.045,0.22,0.126,0.302
		c0.08,0.078,0.189,0.124,0.303,0.124l0,0l3.803-0.004c0.236,0,0.429-0.192,0.429-0.428l-0.004-3.157l6.959-0.008l0,0
		c0.214,0,0.386,0.368,0.469,0.591c0.198,0.528,0.299,1.392,0.301,2.563c0,0.236,0.192,0.429,0.43,0.429l0,0l3.802-0.004
		c0.236-0.002,0.429-0.192,0.428-0.431C185.138,16.7,185.034,15.341,184.82,14.452 M172.748,11.021l-0.004-2.532l6.461-0.008h0.001
		c0.354,0,0.65,0.111,0.904,0.341c0.246,0.223,0.359,0.472,0.36,0.784c0.001,0.395-0.125,0.725-0.384,1.005
		c-0.251,0.27-0.539,0.402-0.88,0.402L172.748,11.021z"/>
	<path fill="#041E42" d="M26.742,1.297c0.356,0,0.648,0.293,0.648,0.649v16.499c0,0.358-0.292,0.65-0.648,0.65h-4.357
		c-0.357,0-0.65-0.292-0.65-0.65v-6.586c0-0.356-0.147-0.396-0.329-0.088l-3.977,6.765c-0.181,0.309-0.622,0.562-0.979,0.562h-4.33
		c-0.357,0-0.65-0.293-0.651-0.65l-0.013-6.563c-0.001-0.356-0.149-0.398-0.331-0.09l-3.968,6.743
		c-0.182,0.309-0.622,0.561-0.979,0.561h-5.11c-0.356,0-0.502-0.252-0.321-0.561L10.48,1.859c0.181-0.31,0.62-0.562,0.979-0.562
		h4.845c0.357,0,0.649,0.293,0.649,0.649v6.937c0,0.358,0.147,0.398,0.327,0.088l4.152-7.112c0.18-0.31,0.619-0.562,0.978-0.562
		H26.742z"/>
</g>
</svg>
