<?xml version="1.0" encoding="utf-8"?>
<!-- Generator: Adobe Illustrator 16.0.0, SVG Export Plug-In . SVG Version: 6.00 Build 0)  -->
<!DOCTYPE svg PUBLIC "-//W3C//DTD SVG 1.1//EN" "http://www.w3.org/Graphics/SVG/1.1/DTD/svg11.dtd">
<svg version="1.1" id="Layer_1" xmlns="http://www.w3.org/2000/svg" xmlns:xlink="http://www.w3.org/1999/xlink" x="0px" y="0px"
	 width="595.279px" height="841.891px" viewBox="0 0 595.279 841.891" enable-background="new 0 0 595.279 841.891"
	 xml:space="preserve">
<g>
	<g>
		<path fill="#041E42" d="M421.772,277.893H173.508c-10.613,0-18.92,8.306-18.92,18.92s8.307,18.92,18.92,18.92h248.726
			c10.613,0,18.92-8.306,18.92-18.92C440.692,286.199,432.385,277.893,421.772,277.893z"/>
		<path fill="#041E42" d="M421.772,526.619H173.508c-10.613,0-18.92,8.306-18.92,18.92c0,10.613,8.307,18.919,18.92,18.919h248.726
			c10.613,0,18.92-8.306,18.92-18.919C440.692,534.925,432.385,526.619,421.772,526.619z"/>
		<path fill="#041E42" d="M421.772,402.025H173.508c-10.613,0-18.92,8.307-18.92,18.92s8.307,18.92,18.92,18.92h248.726
			c10.613,0,18.92-8.307,18.92-18.92C440.692,410.332,432.385,402.025,421.772,402.025z"/>
	</g>
</g>
</svg>
